<svg xmlns="http://www.w3.org/2000/svg" width="67.211" height="67.211" viewBox="0 0 67.211 67.211"><defs><style>.a{fill:#e7f7f6;}.b{fill:#5ba7a2;stroke:#e7f7f6;}</style></defs><g transform="translate(-1235 -573)"><path class="a" d="M33.605,0A33.605,33.605,0,1,1,0,33.605,33.605,33.605,0,0,1,33.605,0Z" transform="translate(1235 573)"/><g transform="translate(1233 572.121)"><path class="b" d="M26.569,68.139A5.569,5.569,0,1,0,21,62.569,5.569,5.569,0,0,0,26.569,68.139Zm0-8.1a2.532,2.532,0,1,1-2.532,2.532A2.532,2.532,0,0,1,26.569,60.038Z" transform="translate(-0.494 -19.819)"/><path class="b" d="M68.139,26.569a5.569,5.569,0,1,0-5.569,5.569A5.569,5.569,0,0,0,68.139,26.569Zm-8.1,0A2.532,2.532,0,1,1,62.569,29.1,2.532,2.532,0,0,1,60.038,26.569Z" transform="translate(-18.267 -1.047)"/><path class="b" d="M49.447,59.693l5.569,5.569,2.147-2.147-2.977-2.977h4.942A5.569,5.569,0,0,0,64.7,54.569V49H61.659v5.569A2.532,2.532,0,0,1,59.127,57.1H54.186l2.977-2.977-2.147-2.147-5.569,5.569A1.519,1.519,0,0,0,49.447,59.693Z" transform="translate(-14.318 -15.87)"/><path class="b" d="M20,29.573v5.569h3.038V29.573a2.532,2.532,0,0,1,2.532-2.532h4.942l-2.977,2.977,2.147,2.147L35.25,26.6a1.519,1.519,0,0,0,0-2.147L29.681,18.88l-2.147,2.147L30.511,24H25.569A5.569,5.569,0,0,0,20,29.573Z"/></g></g></svg>