<svg xmlns="http://www.w3.org/2000/svg" width="22.528" height="19.485" viewBox="0 0 22.528 19.485"><defs><style>.a{fill:#00539e;}</style></defs><g transform="translate(-1045 -678)"><g transform="translate(1045 678)"><g transform="translate(0 0)"><path class="a" d="M22.174,11.294H17.855V9.772A1.477,1.477,0,0,0,16.382,8.3H10.345A1.477,1.477,0,0,0,8.873,9.772v1.521H4.309A2.2,2.2,0,0,0,2.1,13.5V25.576a2.2,2.2,0,0,0,2.209,2.209H22.174a2.461,2.461,0,0,0,2.454-2.454V13.748A2.461,2.461,0,0,0,22.174,11.294ZM10.345,9.748h6.037v1.521H10.345Zm12.81,15.607a.984.984,0,0,1-.982.982H4.309a.723.723,0,0,1-.736-.736V13.5a.723.723,0,0,1,.736-.736H22.174a.984.984,0,0,1,.982.982Z" transform="translate(-2.1 -8.3)"/><path class="a" d="M39.524,41.894H37.266V39.636a.736.736,0,1,0-1.472,0v2.258H33.536a.736.736,0,0,0,0,1.472h2.258v2.258a.736.736,0,0,0,1.472,0V43.366h2.258a.736.736,0,0,0,0-1.472Z" transform="translate(-25.266 -31.391)"/></g></g></g></svg>