<svg xmlns="http://www.w3.org/2000/svg" width="23.874" height="23.525" viewBox="0 0 23.874 23.525"><defs><style>.a{fill:#00539e;}</style></defs><g transform="translate(-506 -538)"><g transform="translate(506 538)"><g transform="translate(11.937 0)"><g transform="translate(0 4.412)"><path class="a" d="M52.156,34.915a.783.783,0,0,1-.658-.358l-1.373-2.124a.783.783,0,0,1,.655-1.208l2.736-.008h0a.783.783,0,0,1,.659,1.2l-1.364,2.131a.783.783,0,0,1-.658.361Z" transform="translate(-50 -31.218)"/></g><g transform="translate(1.422)"><path class="a" d="M54.416,26.692a.783.783,0,0,1-.783-.783V20.728a.783.783,0,1,1,1.565,0v5.181A.783.783,0,0,1,54.416,26.692Z" transform="translate(-53.633 -19.945)"/></g></g><g transform="translate(0 0.999)"><path class="a" d="M23.226,24.063H20.283a.783.783,0,0,1,0-1.565h2.943a.783.783,0,1,1,0,1.565Z" transform="translate(-19.5 -22.498)"/><g transform="translate(2.943 0)"><path class="a" d="M31.784,40.339a.783.783,0,0,1-.76-.6L27.042,23.467a.783.783,0,1,1,1.52-.372L32.545,39.37a.783.783,0,0,1-.574.946A.808.808,0,0,1,31.784,40.339Z" transform="translate(-27.019 -22.499)"/></g><g transform="translate(6.925 16.21)"><path class="a" d="M37.978,65.546a.783.783,0,0,1,0-1.565l12.361-.065h0a.783.783,0,0,1,0,1.565l-12.361.065Z" transform="translate(-37.195 -63.916)"/></g><g transform="translate(19.286 8.316)"><path class="a" d="M69.561,53.207a.784.784,0,0,1-.731-1.063l3.022-7.893a.783.783,0,0,1,1.462.56L70.292,52.7A.783.783,0,0,1,69.561,53.207Z" transform="translate(-68.778 -43.747)"/></g><g transform="translate(6.979 18.047)"><path class="a" d="M39.615,73.089a2.24,2.24,0,1,1,2.283-2.24A2.264,2.264,0,0,1,39.615,73.089Zm0-2.914a.676.676,0,1,0,.718.674A.7.7,0,0,0,39.615,70.174Z" transform="translate(-37.332 -68.609)"/></g><g transform="translate(16.307 17.965)"><path class="a" d="M63.449,72.88a2.24,2.24,0,1,1,2.283-2.24A2.264,2.264,0,0,1,63.449,72.88Zm0-2.914a.676.676,0,1,0,.718.674A.7.7,0,0,0,63.449,69.965Z" transform="translate(-61.166 -68.4)"/></g><g transform="translate(5.042 8.292)"><path class="a" d="M50.432,45.275h0l-17.266-.025a.783.783,0,0,1,0-1.565h0l17.266.025a.783.783,0,0,1,0,1.565Z" transform="translate(-32.383 -43.684)"/></g></g></g></g></svg>