<svg xmlns="http://www.w3.org/2000/svg" width="52.572" height="40" viewBox="0 0 52.572 40"><defs><style>.a{opacity:0.2;}</style></defs><path class="a" d="M4,967.362v40H56.572v-40H4Zm3.429,3.429H53.143v26.429l-9.018-9.875a1.718,1.718,0,0,0-2.518-.018l-7.75,8.232L22.429,982.791a1.722,1.722,0,0,0-2.536-.036L7.429,996.148Zm26.857,4.572a5.143,5.143,0,1,0,5.143,5.143A5.169,5.169,0,0,0,34.286,975.362Zm0,3.429a1.714,1.714,0,1,1-1.714,1.714A1.689,1.689,0,0,1,34.286,978.791Zm-13.179,7.679,15.625,17.464H7.429v-2.768Zm21.732,4.554,10.3,11.286v1.625H41.34l-5.2-5.8Z" transform="translate(-4 -967.362)"/></svg>