<svg xmlns="http://www.w3.org/2000/svg" width="63.87" height="54.1" viewBox="0 0 63.87 54.1"><defs><style>.a,.b{fill:#00539e;stroke-width:0.5px;}.a{stroke:#4a7bff;}.b{stroke:#00539e;}</style></defs><g transform="translate(0.25 0.25)"><path class="a" d="M17.585,43.336a1.2,1.2,0,0,0,.924.4h26.8a24.783,24.783,0,0,0,9.9-2.112,3.381,3.381,0,0,0,2.112-3.036c0-2.508-2.508-3.168-2.64-3.3a25.232,25.232,0,0,0-9.373-1.848h-9.9c-5.809-8.845-5.941-11.618-7.921-10.694-2.376,1.32-3.961,1.32-3.961,2.64v8.053H17.453l-2.64-4.621c-.792-1.32-2.508-.132-4.489.264A1.312,1.312,0,0,0,9.4,30.4c.132,4.093-.264,4.753.4,5.413ZM12.04,31.454,13.1,31.19c2.376,3.7,2.376,5.017,3.7,5.017h8.185c2.244,0,.924-3.3,1.32-9.769l1.32-.66c6.2,9.637,5.809,10.43,7.129,10.43H45.309a22.073,22.073,0,0,1,8.845,1.848.644.644,0,0,1,0,1.188,21.349,21.349,0,0,1-8.845,1.848H19.037l-7-6.733v-2.9Z" transform="translate(-1.611 -2.278)"/><path class="b" d="M65.549,7.2H4.82A1.247,1.247,0,0,0,3.5,8.52V59.48A1.247,1.247,0,0,0,4.82,60.8H65.549a1.247,1.247,0,0,0,1.32-1.32V8.52A1.247,1.247,0,0,0,65.549,7.2Zm-1.32,50.96H6.14V22.382H64.229Zm0-38.418H6.14V9.84H64.229Z" transform="translate(-3.5 -7.2)"/><path class="a" d="M42.32,14.45a1.321,1.321,0,0,0,.924-2.244A1.284,1.284,0,0,0,41,13.13,1.42,1.42,0,0,0,42.32,14.45Z" transform="translate(8.508 -5.737)"/><path class="a" d="M36.64,13.115a1.321,1.321,0,0,0-2.244-.924,1.274,1.274,0,0,0,0,1.848A1.321,1.321,0,0,0,36.64,13.115Z" transform="translate(6.266 -5.722)"/></g></svg>