<svg xmlns="http://www.w3.org/2000/svg" width="67.211" height="67.211" viewBox="0 0 67.211 67.211"><defs><style>.a{fill:#d8f5e9;}.b{fill:#43d191;}</style></defs><g transform="translate(-526 -1155)"><path class="a" d="M33.605,0A33.605,33.605,0,1,1,0,33.605,33.605,33.605,0,0,1,33.605,0Z" transform="translate(526 1155)"/><path class="b" d="M31.69,10H14.338A4.351,4.351,0,0,0,10,14.338V31.69a4.35,4.35,0,0,0,4.338,4.338H31.69a4.35,4.35,0,0,0,4.338-4.338V14.338A4.351,4.351,0,0,0,31.69,10Zm2.169,21.69a2.172,2.172,0,0,1-2.169,2.169H14.338a2.171,2.171,0,0,1-2.169-2.169V14.338a2.171,2.171,0,0,1,2.169-2.169H31.69a2.171,2.171,0,0,1,2.169,2.169Z" transform="translate(536.722 1165.723)"/><path class="b" d="M39.88,26.667a4.864,4.864,0,0,0-3.254,8.494v4.52A2.176,2.176,0,0,0,38.8,41.85h2.169a2.176,2.176,0,0,0,2.169-2.169V35.161a4.864,4.864,0,0,0-3.254-8.494Zm1.084,7.363v5.651H38.8V34.03a2.711,2.711,0,1,1,2.169,0Z" transform="translate(519.856 1154.479)"/></g></svg>