<svg xmlns="http://www.w3.org/2000/svg" width="60" height="60" viewBox="0 0 60 60"><defs><style>.a{fill:#e7f7f6;}.b{fill:#5ba7a2;stroke:#5ba7a2;stroke-width:0.25px;}</style></defs><g transform="translate(-550 -801)"><path class="a" d="M30,0A30,30,0,1,1,0,30,30,30,0,0,1,30,0Z" transform="translate(550 801)"/><g transform="translate(560 811.025)"><path class="b" d="M31.865,29.582h-.324V15.988h.324a2.269,2.269,0,0,0,.162-4.531L19.857,5.048a.686.686,0,0,0-.615,0L7.1,11.457a2.269,2.269,0,0,0,.162,4.531h.324V29.582H7.266a2.266,2.266,0,0,0,0,4.531h24.6a2.266,2.266,0,0,0,0-4.531Zm-10.034,0V15.988H27.01V29.582Zm-9.71,0V15.988H17.3V29.582Zm8.416-3.237H18.594V15.988h1.942ZM18.594,27.64h1.942v1.942H18.594Zm9.71,0h1.942v1.942H28.3Zm1.942-1.295H28.3V15.988h1.942ZM19.565,6.375l9.678,5.082H22.737a3.238,3.238,0,0,0-6.344,0H9.887Zm1.813,5.082H17.753a1.916,1.916,0,0,1,3.625,0ZM6.295,13.722a.954.954,0,0,1,.971-.971h24.6a.971.971,0,1,1,0,1.942H7.266A.954.954,0,0,1,6.295,13.722Zm4.531,2.266V26.346H8.884V15.988ZM8.884,27.64h1.942v1.942H8.884Zm22.981,5.179H7.266a.971.971,0,0,1,0-1.942h24.6a.971.971,0,1,1,0,1.942Z"/></g></g></svg>