<svg xmlns="http://www.w3.org/2000/svg" width="67.211" height="67.211" viewBox="0 0 67.211 67.211"><defs><style>.a{fill:#e7efff;}.b{fill:#306cf7;stroke:#306bf5;stroke-width:0.5px;}</style></defs><g transform="translate(-286 -864)"><path class="a" d="M33.605,0A33.605,33.605,0,1,1,0,33.605,33.605,33.605,0,0,1,33.605,0Z" transform="translate(286 864)"/><g transform="translate(295.7 874.3)"><g transform="translate(10.3 10.7)"><path class="b" d="M36.573,14.009A3.309,3.309,0,0,0,33.264,10.7H13.609A3.309,3.309,0,0,0,10.3,14.009V33.4a3.309,3.309,0,0,0,3.309,3.309H33.264A3.309,3.309,0,0,0,36.573,33.4ZM13.642,12.024H33.264a1.985,1.985,0,0,1,1.985,1.985v1.985H11.624V14.009a1.985,1.985,0,0,1,1.985-1.985ZM33.264,35.385H13.609A1.985,1.985,0,0,1,11.624,33.4V17.318H35.249V33.4A1.985,1.985,0,0,1,33.264,35.385Z" transform="translate(-10.3 -10.7)"/><path class="b" d="M28.8,39.5h-3.64a.662.662,0,0,0-.662.662V43.8a.662.662,0,0,0,.662.662H28.8a.662.662,0,0,0,.662-.662v-3.64A.662.662,0,0,0,28.8,39.5Zm-.662,3.64H25.824V40.824H28.14Z" transform="translate(-19.801 -29.97)"/><path class="b" d="M50.162,40.824h4.633a.662.662,0,0,0,0-1.324H50.162a.662.662,0,0,0,0,1.324Z" transform="translate(-36.529 -29.97)"/><path class="b" d="M57.441,49.5h-7.28a.662.662,0,0,0,0,1.324h7.28a.662.662,0,0,0,0-1.324Z" transform="translate(-36.529 -36.661)"/><path class="b" d="M28.8,61.5h-3.64a.662.662,0,0,0-.662.662V65.8a.662.662,0,0,0,.662.662H28.8a.662.662,0,0,0,.662-.662v-3.64A.662.662,0,0,0,28.8,61.5Zm-.662,3.64H25.824V62.824H28.14Z" transform="translate(-19.801 -44.691)"/><path class="b" d="M50.162,62.824h4.633a.662.662,0,0,0,0-1.324H50.162a.662.662,0,0,0,0,1.324Z" transform="translate(-36.529 -44.691)"/><path class="b" d="M57.441,71.5h-7.28a.662.662,0,0,0,0,1.324h7.28a.662.662,0,0,0,0-1.324Z" transform="translate(-36.529 -51.382)"/></g></g></g></svg>