<svg xmlns="http://www.w3.org/2000/svg" width="67.211" height="67.211" viewBox="0 0 67.211 67.211"><defs><style>.a{fill:#eedfff;}.b{fill:#cd58ff;}</style></defs><g transform="translate(-621 -573)"><path class="a" d="M33.605,0A33.605,33.605,0,1,1,0,33.605,33.605,33.605,0,0,1,33.605,0Z" transform="translate(621 573)"/><g transform="translate(630.8 587.5)"><path class="b" d="M36.427,9.644,30.1,3.35a2.725,2.725,0,0,0-1.973-.816L17.718,2.5h0a2.951,2.951,0,0,0-2.007.816,2.951,2.951,0,0,0-.816,2.007V7.194H13.023a2.951,2.951,0,0,0-2.007.816,2.692,2.692,0,0,0-.816,2.007V32.027a2.816,2.816,0,0,0,2.823,2.823H29.76a2.816,2.816,0,0,0,2.823-2.823V30.156h1.871a2.816,2.816,0,0,0,2.823-2.823V11.651A2.985,2.985,0,0,0,36.427,9.644ZM29.59,5.391l4.762,4.762H30.066a.487.487,0,0,1-.476-.476Zm1.157,26.6a.987.987,0,0,1-.986.986h-16.7a.987.987,0,0,1-.986-.986V9.984a.856.856,0,0,1,.306-.68A.907.907,0,0,1,13.057,9h1.871V27.3a2.816,2.816,0,0,0,2.823,2.823H30.78v1.871Zm3.708-3.674H17.718a.987.987,0,0,1-.986-.986V5.323a.979.979,0,0,1,.306-.714,1.011,1.011,0,0,1,.68-.272h0l10.035.034V9.746a2.279,2.279,0,0,0,2.279,2.279h5.375V27.332A.938.938,0,0,1,34.454,28.319Z"/></g></g></svg>