<svg xmlns="http://www.w3.org/2000/svg" width="60" height="60" viewBox="0 0 60 60"><defs><style>.a{fill:#ffd8d8;}.b{fill:#ff4646;}</style></defs><g transform="translate(-550 -661)"><path class="a" d="M30,0A30,30,0,1,1,0,30,30,30,0,0,1,30,0Z" transform="translate(550 661)"/><g transform="translate(562.754 671)"><path class="b" d="M2.754,35.536h3.88a3.636,3.636,0,0,1,7.165,0h6.9V17.505H15.356a.753.753,0,1,1,0-1.505h6.1a.753.753,0,0,1,.754.753v4.891h7.919a.754.754,0,0,1,.66.376l2.783,5,2.674,1.2a.752.752,0,0,1,.445.689v7.379a.753.753,0,0,1-.754.753h-4.71a3.635,3.635,0,0,1-7.172,0H13.807a3.636,3.636,0,0,1-7.165,0H2.754a.753.753,0,1,1,0-1.505Zm24.888,3.04a2.291,2.291,0,0,0,0-4.572,2.291,2.291,0,0,0,0,4.572Zm-5.43-3.04h1.844a3.636,3.636,0,0,1,7.172,0h3.956V29.4l-2.459-1.1a.78.78,0,0,1-.351-.32l-2.689-4.824H22.212ZM10.22,38.576a2.291,2.291,0,1,0-2.149-2.288,2.226,2.226,0,0,0,2.149,2.288Z" transform="translate(-2 -6.237)"/><path class="b" d="M79.205,53.425H74.653a.753.753,0,1,1,0-1.505h4.553a.753.753,0,0,1,0,1.505Z" transform="translate(-72.395 -28.642)"/><path class="b" d="M69.9,42.673a.753.753,0,0,1,.753-.753h4.553a.753.753,0,1,1,0,1.505H70.653A.753.753,0,0,1,69.9,42.673Z" transform="translate(-66.89 -22.404)"/><path class="b" d="M23.905,42.969a.753.753,0,0,1-.643.376H17.053a.758.758,0,0,1-.753-.764c.023-1.6.03-3.386,0-3.763a.753.753,0,0,1,.192-.666.775.775,0,0,1,.572-.233h4.128a.753.753,0,0,1,.677.406l2.069,3.906A.753.753,0,0,1,23.905,42.969Zm-3.164-3.544H17.825v2.4h4.188Z" transform="translate(5.28 -19.909)"/><path class="b" d="M68.02,18.041a6.02,6.02,0,1,1,6.02-6.02A6.02,6.02,0,0,1,68.02,18.041Zm0-10.535a4.515,4.515,0,1,0,4.515,4.515A4.515,4.515,0,0,0,68.02,7.505Z" transform="translate(-62 0)"/><path class="b" d="M70.64,19a.672.672,0,0,0,.5.228h0a.672.672,0,0,0,.5-.225L74.4,15.93a.674.674,0,0,0-1.008-.9l-2.247,2.526-.6-.672a.673.673,0,1,0-1.008.893Z" transform="translate(-65.731 -5.044)"/></g></g></svg>