<svg xmlns="http://www.w3.org/2000/svg" width="29.359" height="23.564" viewBox="0 0 29.359 23.564"><defs><style>.a{fill:#00539e;}</style></defs><g transform="translate(-562.754 -677)"><g transform="translate(562.754 677)"><path class="a" d="M2.638,32.533H5.922a3.077,3.077,0,0,1,6.063,0h5.843V17.274H13.3A.637.637,0,1,1,13.3,16h5.163a.638.638,0,0,1,.638.637v4.14h6.7a.639.639,0,0,1,.558.318l2.355,4.232,2.263,1.016a.637.637,0,0,1,.377.583V33.17a.638.638,0,0,1-.638.637H26.735a3.076,3.076,0,0,1-6.07,0H11.992a3.077,3.077,0,0,1-6.063,0H2.638a.637.637,0,1,1,0-1.274ZM23.7,35.106a1.939,1.939,0,0,0,0-3.869,1.939,1.939,0,0,0,0,3.869Zm-4.6-2.573h1.561a3.077,3.077,0,0,1,6.07,0h3.348v-5.2L28,26.4a.66.66,0,0,1-.3-.271L25.43,22.05H19.1ZM8.957,35.106A1.938,1.938,0,1,0,7.138,33.17a1.884,1.884,0,0,0,1.819,1.936Z" transform="translate(-2 -12.816)"/><path class="a" d="M78.39,53.194H74.537a.637.637,0,1,1,0-1.274H78.39a.637.637,0,1,1,0,1.274Z" transform="translate(-72.626 -37.298)"/><path class="a" d="M69.9,42.557a.637.637,0,0,1,.637-.637H74.39a.637.637,0,0,1,0,1.274H70.537A.637.637,0,0,1,69.9,42.557Z" transform="translate(-67.353 -30.482)"/><path class="a" d="M22.734,42.193a.637.637,0,0,1-.545.318H16.935a.641.641,0,0,1-.637-.646c.019-1.357.025-2.866,0-3.184a.637.637,0,0,1,.162-.564.656.656,0,0,1,.484-.2h3.493a.637.637,0,0,1,.573.344l1.751,3.305A.637.637,0,0,1,22.734,42.193Zm-2.678-3H17.588v2.035h3.544Z" transform="translate(1.965 -27.755)"/><path class="a" d="M67.095,16.19a5.095,5.095,0,1,1,5.095-5.095A5.095,5.095,0,0,1,67.095,16.19Zm0-8.916a3.821,3.821,0,1,0,3.821,3.821A3.821,3.821,0,0,0,67.095,7.274Z" transform="translate(-62 -6)"/><path class="a" d="M70.444,18.352a.568.568,0,0,0,.421.193h0a.568.568,0,0,0,.424-.19l2.336-2.6A.571.571,0,0,0,72.772,15l-1.9,2.137-.509-.568a.57.57,0,1,0-.853.756Z" transform="translate(-66.29 -11.623)"/></g></g></svg>