<svg xmlns="http://www.w3.org/2000/svg" width="67.211" height="67.211" viewBox="0 0 67.211 67.211"><defs><style>.a,.b{fill:#00539e;}.a{opacity:0.1;}</style></defs><g transform="translate(-1104 -642)"><path class="a" d="M33.605,0A33.605,33.605,0,1,1,0,33.605,33.605,33.605,0,0,1,33.605,0Z" transform="translate(1104 642)"/><g transform="translate(-252.48 -34.351)"><path class="b" d="M29.125,9.48A2.081,2.081,0,0,0,28.5,8L25.883,5.418a2.157,2.157,0,0,0-2.972.023l-2.25,2.281c-.007.007-.017.009-.024.016s-.012.021-.021.03l-7.8,7.911a4.158,4.158,0,0,0-1.072,2.384l-.16,2.352a1.939,1.939,0,0,0,1.95,2.1c.03,0,.14,0,.17-.007l2.349-.191a4.152,4.152,0,0,0,2.368-1.106l7.692-7.8c.007-.006.015-.007.02-.012s.009-.016.016-.024l2.368-2.4A2.09,2.09,0,0,0,29.125,9.48Zm-12.3,10.148a2,2,0,0,1-.947.443l-2.019.166.137-2.022a2.016,2.016,0,0,1,.429-.954l7-7.1,2.351,2.42Zm8.534-8.653L23,8.556,24.41,7.128l2.4,2.369Z" transform="translate(1373.895 691.515)"/><path class="b" d="M24.357,18.261a1.126,1.126,0,0,0-1.126,1.126v8.255H6.732v-16.5h8.243a1.126,1.126,0,1,0,0-2.252H5.606A1.127,1.127,0,0,0,4.48,10.019v18.75a1.127,1.127,0,0,0,1.126,1.126h18.75a1.126,1.126,0,0,0,1.126-1.126V19.387A1.124,1.124,0,0,0,24.357,18.261Z" transform="translate(1373 692.027)"/></g></g></svg>