<svg xmlns="http://www.w3.org/2000/svg" width="13.906" height="20.287" viewBox="0 0 13.906 20.287"><defs><style>.a{fill:#9b9b9b;}</style></defs><g transform="translate(-1675.094 -525)"><g transform="translate(-92.338 102)"><g transform="translate(-51 -3.795)"><g transform="translate(1818.432 426.795)"><path class="a" d="M69.708,1.815a.909.909,0,0,1,.908-.908h4.03a.909.909,0,0,1,.908.908V2.832h.908V1.815A1.817,1.817,0,0,0,74.646,0h-4.03A1.817,1.817,0,0,0,68.8,1.815V2.832h.908Zm0,0" transform="translate(-65.678)"/><path class="a" d="M28.6,170.383a1.4,1.4,0,0,0,1.362,1.5H38.55a1.4,1.4,0,0,0,1.362-1.5V158.8H28.6Zm7.9-9.93a.454.454,0,1,1,.908,0v9.031a.454.454,0,0,1-.908,0Zm-5.392,0a.454.454,0,1,1,.908,0v9.031a.454.454,0,0,1-.908,0Zm0,0" transform="translate(-27.304 -151.594)"/><path class="a" d="M13,72.8H.908A.909.909,0,0,0,0,73.709V75.8H13.905V73.709A.909.909,0,0,0,13,72.8Zm0,0" transform="translate(0 -69.497)"/></g></g></g></g></svg>