<svg xmlns="http://www.w3.org/2000/svg" width="60" height="60" viewBox="0 0 60 60"><defs><style>.a{fill:#ffe9dc;}.b{fill:#fe6b45;}</style></defs><g transform="translate(-492 -523)"><path class="a" d="M30,0A30,30,0,1,1,0,30,30,30,0,0,1,30,0Z" transform="translate(492 523)"/><g transform="translate(486.5 518.055)"><g transform="translate(35.223 19.945)"><g transform="translate(0 5.811)"><path class="b" d="M52.839,36.088a1.031,1.031,0,0,1-.866-.471l-1.808-2.8a1.031,1.031,0,0,1,.863-1.591l3.6-.01h0A1.031,1.031,0,0,1,55.5,32.8l-1.8,2.807a1.031,1.031,0,0,1-.866.475Z" transform="translate(-50 -31.218)"/></g><g transform="translate(1.873)"><path class="b" d="M54.664,28.832A1.031,1.031,0,0,1,53.633,27.8V20.976a1.031,1.031,0,1,1,2.062,0V27.8A1.032,1.032,0,0,1,54.664,28.832Z" transform="translate(-53.633 -19.945)"/></g></g><g transform="translate(19.5 21.261)"><path class="b" d="M24.408,24.56H20.531a1.031,1.031,0,0,1,0-2.062h3.877a1.031,1.031,0,1,1,0,2.062Z" transform="translate(-19.5 -22.498)"/><g transform="translate(3.876 0)"><path class="b" d="M33.3,46a1.031,1.031,0,0,1-1-.786L27.049,23.775a1.031,1.031,0,0,1,2-.49L34.3,44.722a1.032,1.032,0,0,1-.756,1.247A1.065,1.065,0,0,1,33.3,46Z" transform="translate(-27.019 -22.499)"/></g><g transform="translate(9.122 21.352)"><path class="b" d="M38.226,66.064A1.031,1.031,0,0,1,38.22,64L54.5,63.916h.006a1.031,1.031,0,0,1,.006,2.062l-16.282.086Z" transform="translate(-37.195 -63.916)"/></g><g transform="translate(25.404 10.954)"><path class="b" d="M69.81,56.207a1.032,1.032,0,0,1-.963-1.4l3.98-10.4a1.031,1.031,0,1,1,1.926.737l-3.98,10.4A1.031,1.031,0,0,1,69.81,56.207Z" transform="translate(-68.778 -43.747)"/></g><g transform="translate(9.193 23.771)"><path class="b" d="M40.34,74.51a2.951,2.951,0,1,1,3.008-2.95A2.983,2.983,0,0,1,40.34,74.51Zm0-3.839a.89.89,0,1,0,.945.888A.919.919,0,0,0,40.34,70.671Z" transform="translate(-37.332 -68.609)"/></g><g transform="translate(21.48 23.663)"><path class="b" d="M64.174,74.3a2.951,2.951,0,1,1,3.008-2.95A2.983,2.983,0,0,1,64.174,74.3Zm0-3.839a.89.89,0,1,0,.945.888A.919.919,0,0,0,64.174,70.462Z" transform="translate(-61.166 -68.4)"/></g><g transform="translate(6.641 10.922)"><path class="b" d="M56.157,45.779h0l-22.743-.033a1.031,1.031,0,0,1,0-2.062h0l22.743.033a1.031,1.031,0,0,1,0,2.062Z" transform="translate(-32.383 -43.684)"/></g></g></g></g></svg>