<svg xmlns="http://www.w3.org/2000/svg" width="20.306" height="20.286" viewBox="0 0 20.306 20.286"><defs><style>.a{fill:#9b9b9b;}</style></defs><g transform="translate(-3 -2.643)"><path class="a" d="M24.034,4.8,22.469,3.232a2.141,2.141,0,0,0-2.948,0l-7.446,7.446a.833.833,0,0,0-.225.425l-.833,4.164a.827.827,0,0,0,.816,1H12l4.164-.833a.833.833,0,0,0,.425-.225l7.446-7.446a2.091,2.091,0,0,0,0-2.948Zm-8.445,9.037-2.7.541.541-2.7L18.5,6.613l2.157,2.157Zm7.263-7.271L21.827,7.6,19.67,5.439,20.7,4.415a.4.4,0,0,1,.583,0L22.852,5.98a.4.4,0,0,1,0,.583Z" transform="translate(-1.337)"/><path class="a" d="M18.408,23.324H5.915A2.915,2.915,0,0,1,3,20.408V7.915A2.915,2.915,0,0,1,5.915,5h5.414a.833.833,0,1,1,0,1.666H5.915A1.249,1.249,0,0,0,4.666,7.915V20.408a1.249,1.249,0,0,0,1.249,1.249H18.408a1.249,1.249,0,0,0,1.249-1.249V14.995a.833.833,0,1,1,1.666,0v5.414A2.915,2.915,0,0,1,18.408,23.324Z" transform="translate(0 -0.394)"/></g></svg>