<svg xmlns="http://www.w3.org/2000/svg" width="60" height="60" viewBox="0 0 60 60"><defs><style>.a{fill:#d8f5e9;}.b{fill:#43d191;}</style></defs><g transform="translate(-1030 -941)"><path class="a" d="M30,0A30,30,0,1,1,0,30,30,30,0,0,1,30,0Z" transform="translate(1030 941)"/><g transform="translate(1043 956.091)"><g transform="translate(0 2.909)"><path class="b" d="M17.208,17a1.155,1.155,0,0,1-.4-.072L.673,10.883a.976.976,0,0,1,0-1.856L16.806,2.982a1.148,1.148,0,0,1,.8,0L33.744,9.027a.976.976,0,0,1,0,1.856L17.611,16.928A1.155,1.155,0,0,1,17.208,17ZM3.953,9.955l13.256,4.967L30.464,9.955,17.208,4.987Z" transform="translate(0 -2.909)"/><path class="b" d="M17.208,26A22.346,22.346,0,0,1,6.481,23,.972.972,0,0,1,6,22.182V13a1.066,1.066,0,0,1,1.121-1,1.066,1.066,0,0,1,1.121,1v8.631A20.141,20.141,0,0,0,17.208,24a20.029,20.029,0,0,0,8.967-2.368V13a1.128,1.128,0,0,1,2.242,0v9.182a.971.971,0,0,1-.481.82A22.346,22.346,0,0,1,17.208,26Z" transform="translate(0 -1.69)"/><path class="b" d="M31,26a1,1,0,0,1-1-1V10a1,1,0,0,1,2,0V25A1,1,0,0,1,31,26Z" transform="translate(2.417 -1.69)"/></g></g></g></svg>