<svg xmlns="http://www.w3.org/2000/svg" width="67.211" height="67.211" viewBox="0 0 67.211 67.211"><defs><style>.a,.b{fill:#fe6b45;}.a{opacity:0.1;}</style></defs><g transform="translate(-286 -1155)"><path class="a" d="M33.605,0A33.605,33.605,0,1,1,0,33.605,33.605,33.605,0,0,1,33.605,0Z" transform="translate(286 1155)"/><g transform="translate(306 1175)"><path class="b" d="M48.466,49.342H22.876A.876.876,0,0,1,22,48.466V26.608a.876.876,0,0,1,.582-.825l10.458-3.732a.876.876,0,0,1,1.171.825V45.545H32.458V24.12l-8.705,3.106V47.589H47.589V27.226L38.884,24.12V45.6H37.132V22.876a.876.876,0,0,1,1.171-.825L48.76,25.783a.876.876,0,0,1,.582.825V48.466A.876.876,0,0,1,48.466,49.342Z" transform="translate(-22 -22)"/><rect class="b" width="4.696" height="1.753" transform="translate(11.323 5.084)"/><g transform="translate(18.478 5.335)"><rect class="b" width="1.753" height="2.357"/><rect class="b" width="1.753" height="2.357" transform="translate(0 5.39)"/><rect class="b" width="1.753" height="2.357" transform="translate(0 10.721)"/><rect class="b" width="1.753" height="2.357" transform="translate(3.748 5.39)"/><rect class="b" width="1.753" height="2.357" transform="translate(3.748 10.721)"/><rect class="b" width="1.753" height="2.357" transform="translate(0 16.11)"/><rect class="b" width="1.753" height="2.357" transform="translate(3.748 16.11)"/></g><g transform="translate(3.363 5.335)"><rect class="b" width="1.753" height="2.357" transform="translate(3.748)"/><rect class="b" width="1.753" height="2.357" transform="translate(3.748 5.39)"/><rect class="b" width="1.753" height="2.357" transform="translate(3.748 10.721)"/><rect class="b" width="1.753" height="2.357" transform="translate(0 5.39)"/><rect class="b" width="1.753" height="2.357" transform="translate(0 10.721)"/><rect class="b" width="1.753" height="2.357" transform="translate(3.748 16.11)"/><rect class="b" width="1.753" height="2.357" transform="translate(0 16.11)"/></g></g></g></svg>