<svg xmlns="http://www.w3.org/2000/svg" width="60" height="60" viewBox="0 0 60 60"><defs><style>.a{fill:#fff5e0;}.b{fill:#fa9f56;}</style></defs><g transform="translate(-1030 -801)"><path class="a" d="M30,0A30,30,0,1,1,0,30,30,30,0,0,1,30,0Z" transform="translate(1030 801)"/><g transform="translate(1039.5 808)"><g transform="translate(2.5 7)"><path class="b" d="M46.031,58.01l-4.756,1.074a2.3,2.3,0,0,0-1.687-.882l-7.249-.307a4.315,4.315,0,0,0-2.876.92L25.436,61.96l-3.3,3.452a.756.756,0,0,0,.038,1.112l4.832,4.564a.756.756,0,0,0,1.112-.038L31,68.02l4.986.5a7.507,7.507,0,0,0,4.871-1.227l7.1-4.832a2.519,2.519,0,0,0,1.036-2.685A2.449,2.449,0,0,0,46.031,58.01ZM27.545,69.439l-3.682-3.49L25.9,63.8l3.682,3.49ZM47.1,61.193l-7.134,4.794a5.566,5.566,0,0,1-3.8.959l-5.1-.5-3.95-3.759L30.5,60.081a2.707,2.707,0,0,1,1.841-.575l7.249.307a.655.655,0,0,1,.614.575.59.59,0,0,1-.46.652l-1.764.46a8.741,8.741,0,0,1-2.186.268L33.72,61.73a.8.8,0,0,0-.805.767.778.778,0,0,0,.767.805l2.071.038a9.529,9.529,0,0,0,2.531-.307l1.764-.46A2.166,2.166,0,0,0,41.7,60.58l4.679-1.074a.891.891,0,0,1,1.074.652A.947.947,0,0,1,47.1,61.193Z" transform="translate(-14.467 -38.374)"/><path class="b" d="M56.243,19.234a10.614,10.614,0,0,0-7.4-8.629V9.339A2.324,2.324,0,0,0,46.5,7H45.044A2.324,2.324,0,0,0,42.7,9.339v1.266a10.674,10.674,0,0,0-7.4,8.629,1.956,1.956,0,0,0-1.8,1.918v1.611a1.964,1.964,0,0,0,1.956,1.956H56.089a1.964,1.964,0,0,0,1.956-1.956V21.152A1.9,1.9,0,0,0,56.243,19.234ZM44.354,9.339a.728.728,0,0,1,.729-.729H46.54a.728.728,0,0,1,.729.729v.92a8.851,8.851,0,0,0-1.419-.115,8.505,8.505,0,0,0-1.419.115v-.92Zm1.419,2.416a8.978,8.978,0,0,1,8.821,7.44H36.952A8.978,8.978,0,0,1,45.773,11.756ZM56.435,22.763a.3.3,0,0,1-.307.307H35.456a.3.3,0,0,1-.307-.307V21.152a.3.3,0,0,1,.307-.307H56.089a.3.3,0,0,1,.307.307v1.611Z" transform="translate(-21.611 -7)"/><path class="b" d="M10.305,28.511h6.827a.805.805,0,1,0,0-1.611H10.305a.805.805,0,1,0,0,1.611Z" transform="translate(-6.815 -19.268)"/><path class="b" d="M6.805,40.411h6.827a.805.805,0,1,0,0-1.611H6.805a.805.805,0,1,0,0,1.611Z" transform="translate(-4.658 -26.604)"/><path class="b" d="M10.937,51.605a.786.786,0,0,0-.805-.805H3.305a.805.805,0,0,0,0,1.611h6.827A.786.786,0,0,0,10.937,51.605Z" transform="translate(-2.5 -34.002)"/></g></g></g></svg>