<svg xmlns="http://www.w3.org/2000/svg" width="67.211" height="67.211" viewBox="0 0 67.211 67.211"><defs><style>.a{fill:#f7fcd4;}.b{fill:#93c03e;}</style></defs><g transform="translate(-526 -864)"><path class="a" d="M33.605,0A33.605,33.605,0,1,1,0,33.605,33.605,33.605,0,0,1,33.605,0Z" transform="translate(526 864)"/><g transform="translate(539.149 869.058)"><g transform="translate(3.851 16.942)"><path class="b" d="M34.552,21.118H24.271V19.824a2.885,2.885,0,0,0-2.882-2.882H6.733a2.885,2.885,0,0,0-2.882,2.882v9.753a2.885,2.885,0,0,0,2.882,2.882H8.468l-.19,3.4a.91.91,0,0,0,1.515.728l4.616-4.132h2.605v1.294A2.885,2.885,0,0,0,19.9,36.634h6.981l4.615,4.132A.908.908,0,0,0,32.1,41h.007a.91.91,0,0,0,.91-.91A.894.894,0,0,0,33,39.923l-.184-3.288h1.735a2.885,2.885,0,0,0,2.882-2.882V24A2.885,2.885,0,0,0,34.552,21.118ZM14.061,30.639a.908.908,0,0,0-.607.232l-3.238,2.9.121-2.17a.91.91,0,0,0-.908-.96h-2.7a1.064,1.064,0,0,1-1.062-1.062V19.824a1.064,1.064,0,0,1,1.062-1.063H21.389a1.064,1.064,0,0,1,1.063,1.063v1.294H19.9A2.885,2.885,0,0,0,17.014,24v6.639H14.061Zm21.554,3.113a1.064,1.064,0,0,1-1.062,1.063h-2.7a.91.91,0,0,0-.908.96l.121,2.17-3.238-2.9a.908.908,0,0,0-.607-.232H19.9a1.064,1.064,0,0,1-1.063-1.063V24A1.064,1.064,0,0,1,19.9,22.937H34.552A1.064,1.064,0,0,1,35.615,24Z" transform="translate(-3.851 -16.942)"/></g></g></g></svg>