<svg xmlns="http://www.w3.org/2000/svg" width="67.211" height="67.211" viewBox="0 0 67.211 67.211"><defs><style>.a{fill:#fff2d8;}.b{fill:#fa9f56;}</style></defs><g transform="translate(-926 -573)"><path class="a" d="M33.605,0A33.605,33.605,0,1,1,0,33.605,33.605,33.605,0,0,1,33.605,0Z" transform="translate(926 573)"/><g transform="translate(-267 -44)"><path class="b" d="M36.949,34A2.949,2.949,0,1,0,39.9,36.949,2.949,2.949,0,0,0,36.949,34Zm0,3.932a.983.983,0,1,1,.983-.983A.983.983,0,0,1,36.949,37.932Z" transform="translate(1189.746 613.745)"/><path class="b" d="M39.525,35.518a1.811,1.811,0,0,0,.064-1.67l-.579-1.225c0-.083.007-.167.007-.251s0-.167-.007-.251l.578-1.225a1.811,1.811,0,0,0-.064-1.671l-.614-1.074a1.794,1.794,0,0,0-1.416-.9l-1.337-.106c-.136-.086-.276-.167-.418-.242l-.763-1.121A1.793,1.793,0,0,0,33.5,25H32.267a1.79,1.79,0,0,0-1.482.786l-.763,1.121c-.143.075-.282.156-.418.242l-1.337.106a1.794,1.794,0,0,0-1.416.9l-.613,1.073a1.809,1.809,0,0,0-.065,1.672l.579,1.224c0,.083-.007.167-.007.251s0,.17.007.251l-.579,1.224a1.808,1.808,0,0,0,.065,1.671l.614,1.074a1.794,1.794,0,0,0,1.415.9L29.6,37.6q.2.129.419.243l.762,1.12a1.793,1.793,0,0,0,1.482.786H33.5a1.792,1.792,0,0,0,1.482-.786l.762-1.12q.215-.114.418-.242l1.337-.106a1.8,1.8,0,0,0,1.416-.9Zm-2.474-3.145c0,.058,0,.115-.005.17a1.841,1.841,0,0,0,.17.885l.561,1.187-.529.924-1.293.1a1.819,1.819,0,0,0-.834.286c-.1.066-.21.128-.318.185a1.816,1.816,0,0,0-.663.585L33.4,37.78H32.36L31.623,36.7a1.817,1.817,0,0,0-.662-.584q-.165-.086-.322-.186a1.818,1.818,0,0,0-.831-.284l-1.293-.1-.529-.925.561-1.187a1.851,1.851,0,0,0,.17-.889c0-.055-.005-.11-.005-.166s0-.111.005-.17a1.844,1.844,0,0,0-.17-.885l-.561-1.186.529-.925,1.293-.1a1.813,1.813,0,0,0,.832-.285c.1-.066.209-.127.32-.185a1.832,1.832,0,0,0,.662-.584l.737-1.084H33.4l.737,1.083a1.827,1.827,0,0,0,.664.586c.109.057.215.118.319.185a1.819,1.819,0,0,0,.832.284l1.293.1.529.924-.56,1.185a1.83,1.83,0,0,0-.171.885C37.049,32.258,37.051,32.315,37.051,32.373Z" transform="translate(1193.814 618.322)"/><path class="b" d="M33.678,8.628l1.271-1.271v4.508a.983.983,0,0,0,1.966,0V7.357l1.271,1.271a.983.983,0,1,0,1.39-1.39L36.627,4.288l-.016-.013a.985.985,0,0,0-.133-.109.95.95,0,0,0-.088-.048c-.027-.014-.052-.031-.081-.042a.967.967,0,0,0-.116-.036c-.022-.006-.044-.015-.067-.02a.988.988,0,0,0-.387,0c-.023,0-.044.014-.067.02a.967.967,0,0,0-.116.036c-.028.012-.054.028-.081.042a.949.949,0,0,0-.088.048.985.985,0,0,0-.133.109l-.016.013L32.288,7.237a.983.983,0,1,0,1.39,1.39Z" transform="translate(1190.763 628.999)"/><path class="b" d="M8.627,38.186,7.356,36.915h5a.983.983,0,0,0,0-1.966h-5l1.271-1.271a.983.983,0,1,0-1.39-1.39L4.29,35.235a.992.992,0,0,0-.124.151c-.006.008-.009.018-.014.026a.978.978,0,0,0-.076.143c-.006.015-.009.031-.014.046a.966.966,0,0,0-.042.137A.984.984,0,0,0,4,35.919s0,.008,0,.013H4a.808.808,0,0,0,.054.308c.008.023.012.048.022.07a.963.963,0,0,0,.06.112c.011.019.019.039.031.057a.986.986,0,0,0,.107.13c.005.006.009.012.015.018l2.949,2.949a.983.983,0,1,0,1.39-1.39Z" transform="translate(1205 614.762)"/><path class="b" d="M38.186,62.22l-1.271,1.271V58.983a.983.983,0,0,0-1.966,0v4.508L33.678,62.22a.983.983,0,1,0-1.39,1.39l2.949,2.949.016.013a.983.983,0,0,0,.133.109.947.947,0,0,0,.088.048c.027.014.052.031.081.042a.968.968,0,0,0,.116.036c.022.006.044.015.067.02a.959.959,0,0,0,.387,0c.023,0,.044-.014.067-.02a.97.97,0,0,0,.116-.036c.028-.012.054-.028.081-.042a.949.949,0,0,0,.088-.048.984.984,0,0,0,.133-.109l.016-.013,2.949-2.949a.983.983,0,1,0-1.39-1.39Z" transform="translate(1190.763 601.542)"/><path class="b" d="M66.264,36.31c.006-.015.009-.031.014-.046a.964.964,0,0,0,.042-.137.984.984,0,0,0,.018-.181s0-.009,0-.013h0a.808.808,0,0,0-.054-.308c-.008-.023-.012-.048-.022-.07a.964.964,0,0,0-.06-.112c-.011-.019-.019-.039-.031-.057a.986.986,0,0,0-.107-.13c-.005-.006-.009-.012-.015-.018L63.1,32.288a.983.983,0,1,0-1.39,1.39l1.271,1.271h-5a.983.983,0,0,0,0,1.966h5l-1.271,1.271a.983.983,0,1,0,1.39,1.39l2.947-2.947a.992.992,0,0,0,.124-.151c.006-.008.009-.018.014-.026A.978.978,0,0,0,66.264,36.31Z" transform="translate(1178.051 614.762)"/><path class="b" d="M14.983,19.9a.983.983,0,0,0,.983-.983V17.356L19.2,20.593a.983.983,0,1,0,1.39-1.39l-3.237-3.237h1.559a.983.983,0,1,0,0-1.966H14.983a.983.983,0,0,0-.192.02c-.029.006-.057.017-.085.025a.576.576,0,0,0-.194.081c-.024.013-.05.024-.073.04a.987.987,0,0,0-.273.273c-.016.024-.027.05-.041.075a.965.965,0,0,0-.05.094.953.953,0,0,0-.031.1c-.008.028-.019.055-.025.084a.988.988,0,0,0-.019.192v3.932A.983.983,0,0,0,14.983,19.9Z" transform="translate(1199.915 623.915)"/><path class="b" d="M19.2,52.285l-3.237,3.237V53.963a.983.983,0,0,0-1.966,0V57.9a.986.986,0,0,0,.019.188c.006.031.018.06.027.09a.584.584,0,0,0,.083.2c.012.022.022.045.036.067a.987.987,0,0,0,.274.274c.018.012.038.02.058.031a.96.96,0,0,0,.112.059c.026.011.053.016.08.025a.949.949,0,0,0,.1.031.988.988,0,0,0,.143.014c.016,0,.032,0,.048,0h3.932a.983.983,0,1,0,0-1.966H17.356l3.237-3.237a.983.983,0,1,0-1.39-1.39Z" transform="translate(1199.915 604.595)"/><path class="b" d="M57.9,52.98a.983.983,0,0,0-.983.983v1.559l-3.237-3.237a.983.983,0,1,0-1.39,1.39l3.237,3.237H53.963a.983.983,0,0,0,0,1.966H57.9a.986.986,0,0,0,.192-.02c.029-.006.057-.017.085-.025a.964.964,0,0,0,.1-.03.949.949,0,0,0,.1-.051c.024-.013.05-.024.073-.04a.987.987,0,0,0,.273-.273c.016-.024.027-.05.041-.075a.575.575,0,0,0,.08-.193c.008-.028.019-.055.025-.084a.986.986,0,0,0,.02-.192V53.963A.983.983,0,0,0,57.9,52.98Z" transform="translate(1180.595 604.595)"/><path class="b" d="M52.98,20.881a.98.98,0,0,0,.7-.288l3.237-3.237v1.559a.983.983,0,1,0,1.966,0V14.978a.986.986,0,0,0-.019-.188c-.006-.031-.018-.06-.027-.09a.584.584,0,0,0-.083-.2c-.012-.022-.022-.045-.036-.067a.988.988,0,0,0-.274-.274c-.018-.012-.039-.02-.058-.031a.973.973,0,0,0-.112-.059c-.026-.011-.053-.016-.08-.025a.948.948,0,0,0-.1-.031.975.975,0,0,0-.143-.014c-.016,0-.032,0-.048,0H53.963a.983.983,0,1,0,0,1.966h1.559L52.285,19.2a.983.983,0,0,0,.7,1.678Z" transform="translate(1180.595 623.915)"/></g></g></svg>