<svg xmlns="http://www.w3.org/2000/svg" width="23.859" height="23.869" viewBox="0 0 23.859 23.869"><defs><style>.a{fill:#00539e;stroke:#00539e;stroke-width:0.25px;}</style></defs><g transform="translate(-564.875 -815.871)"><g transform="translate(565 816)"><path class="a" d="M26.772,24.918H26.51V13.9h.262a1.839,1.839,0,0,0,.131-3.672L17.04,5.034a.556.556,0,0,0-.5,0L6.705,10.228A1.839,1.839,0,0,0,6.836,13.9H7.1V24.918H6.836a1.836,1.836,0,0,0,0,3.672H26.772a1.836,1.836,0,0,0,0-3.672Zm-8.132,0V13.9h4.2V24.918Zm-7.87,0V13.9h4.2V24.918Zm6.82-2.623H16.017V13.9h1.574Zm-1.574,1.049h1.574v1.574H16.017Zm7.87,0h1.574v1.574H23.887Zm1.574-1.049H23.887V13.9h1.574ZM16.8,6.11l7.843,4.118H19.375a2.624,2.624,0,0,0-5.141,0H8.961Zm1.469,4.118H15.335a1.553,1.553,0,0,1,2.938,0ZM6.049,12.064a.773.773,0,0,1,.787-.787H26.772a.787.787,0,0,1,0,1.574H6.836A.773.773,0,0,1,6.049,12.064ZM9.722,13.9v8.394H8.148V13.9ZM8.148,23.344H9.722v1.574H8.148Zm18.625,4.2H6.836a.787.787,0,0,1,0-1.574H26.772a.787.787,0,0,1,0,1.574Z" transform="translate(-5 -4.975)"/></g></g></svg>