<svg xmlns="http://www.w3.org/2000/svg" width="35.921" height="27.191" viewBox="0 0 35.921 27.191"><defs><style>.a{fill:#fff;stroke:#fff;}</style></defs><path class="a" d="M34.194,30.736H32.739V19.1a.728.728,0,0,0-.444-.669L22.2,14.1l-.371-7.37A.728.728,0,0,0,21.1,6H16.006a.728.728,0,0,0-.728.728l-.429,8.585-2.91-1.251a.728.728,0,0,0-1.026.669V17.99L1.739,14.061a.731.731,0,0,0-1.011.669V30.736a.728.728,0,0,0,0,1.455H34.194a.728.728,0,1,0,0-1.455ZM16.733,7.455h3.71l.524,10.462-4.656-1.993ZM2.183,15.836l8.73,3.739v11.16H2.183ZM12.368,19.1V15.836l8.73,3.739v11.16h-8.73Zm10.185,11.64v-14.9l8.73,3.739v11.16ZM8.73,23.461A.728.728,0,0,1,8,24.188H5.093a.728.728,0,1,1,0-1.455H8A.728.728,0,0,1,8.73,23.461Zm10.185,0a.728.728,0,0,1-.728.728h-2.91a.728.728,0,1,1,0-1.455h2.91A.728.728,0,0,1,18.916,23.461Zm10.185,0a.728.728,0,0,1-.728.728h-2.91a.728.728,0,1,1,0-1.455h2.91A.728.728,0,0,1,29.1,23.461Z" transform="translate(0.5 -5.5)"/></svg>