<svg xmlns="http://www.w3.org/2000/svg" width="550" height="550" viewBox="0 0 550 550">
  <g id="Group_5" data-name="Group 5" transform="translate(-16 -13)">
    <circle id="Ellipse_5" data-name="Ellipse 5" cx="275" cy="275" r="275" transform="translate(16 13)" fill="#d8e0e7"/>
    <path id="Path_1" data-name="Path 1" d="M269.306,195.086H257.86V103.551a5.729,5.729,0,0,0-3.493-5.263l-79.413-34.07L172.036,6.243A5.728,5.728,0,0,0,166.325.5h-40.1A5.727,5.727,0,0,0,120.5,6.227l-3.375,67.534L94.236,63.92a5.729,5.729,0,0,0-8.071,5.263V94.82L14,63.912a5.753,5.753,0,0,0-7.953,5.263V195.086a5.727,5.727,0,0,0,0,11.446H269.306a5.727,5.727,0,0,0,.425-11.446A3.83,3.83,0,0,0,269.306,195.086ZM131.948,11.946h29.185l4.122,82.3L128.629,78.567ZM17.49,77.875l68.675,29.413v87.79H17.49Zm80.121,25.676V77.875l68.675,29.413v87.79H97.611Zm80.121,91.566V77.907l68.675,29.413v87.79ZM68.992,137.857a5.727,5.727,0,0,1-5.735,5.719H40.382a5.727,5.727,0,0,1-.425-11.446,3.823,3.823,0,0,1,.425,0H63.25a5.727,5.727,0,0,1,5.743,5.711Zm80.121,0a5.727,5.727,0,0,1-5.727,5.727H120.495a5.727,5.727,0,0,1-.425-11.446,3.83,3.83,0,0,1,.425,0h22.892a5.727,5.727,0,0,1,5.735,5.719h-.008Zm80.121,0a5.727,5.727,0,0,1-5.727,5.727H200.615a5.727,5.727,0,0,1-.425-11.446,3.83,3.83,0,0,1,.425,0h22.892A5.726,5.726,0,0,1,229.233,137.857Z" transform="translate(152.811 180.895)" fill="#00539e" stroke="#00539e" stroke-width="1"/>
  </g>
</svg>
