<svg xmlns="http://www.w3.org/2000/svg" width="67.211" height="67.211" viewBox="0 0 67.211 67.211"><defs><style>.a{fill:#e4e6ff;}.b{fill:#565dff;stroke:#e4e6ff;}</style></defs><g transform="translate(-286 -864)"><path class="a" d="M33.605,0A33.605,33.605,0,1,1,0,33.605,33.605,33.605,0,0,1,33.605,0Z" transform="translate(286 864)"/><g transform="translate(1245.7 -70.449)"><g transform="translate(-937.7 953.449)"><path class="b" d="M-901.963,953.776a1.377,1.377,0,0,0-1.089-.311l-15.928,2.644a1.308,1.308,0,0,0-1.12,1.307v4.853a1.328,1.328,0,0,0,1.338,1.338,1.328,1.328,0,0,0,1.338-1.338v-3.733l13.283-2.209v23.767l-13.283-2.209v-3.733a1.328,1.328,0,0,0-1.338-1.338,1.328,1.328,0,0,0-1.338,1.338v4.853a1.308,1.308,0,0,0,1.12,1.306l15.928,2.644c.062,0,.156.031.218.031a1.486,1.486,0,0,0,.871-.311,1.285,1.285,0,0,0,.467-1.027V954.74A1.361,1.361,0,0,0-901.963,953.776Z" transform="translate(925.575 -953.449)"/><path class="b" d="M-926.532,990.3a1.3,1.3,0,0,0,0,1.867,1.317,1.317,0,0,0,.933.373,1.317,1.317,0,0,0,.933-.373l5.537-5.537a1.3,1.3,0,0,0,0-1.867l-5.537-5.537a1.3,1.3,0,0,0-1.867,0,1.3,1.3,0,0,0,0,1.867l3.267,3.266h-13.1a1.328,1.328,0,0,0-1.338,1.338,1.328,1.328,0,0,0,1.338,1.338h13.128Z" transform="translate(937.7 -970.931)"/></g></g></g></svg>