<svg xmlns="http://www.w3.org/2000/svg" width="67.211" height="67.211" viewBox="0 0 67.211 67.211"><defs><style>.a{fill:#e9efff;}.b{fill:#4a7bff;stroke:#e9efff;stroke-width:0.5px;}</style></defs><g transform="translate(-1536 -573)"><path class="a" d="M33.605,0A33.605,33.605,0,1,1,0,33.605,33.605,33.605,0,0,1,33.605,0Z" transform="translate(1536 573)"/><g transform="translate(1550.008 588)"><path class="b" d="M33.513,25.427a3.781,3.781,0,0,0-3.554,2.521H24.513a5.042,5.042,0,0,0-3.6-3.6v-2.7c3.227-.239,6.3-1.437,6.3-3.781V7.781c0-2.6-3.92-3.781-7.563-3.781s-7.563,1.185-7.563,3.781V17.865c0,2.294,3.075,3.491,6.3,3.781v2.748a5.042,5.042,0,0,0-3.6,3.554H9.338a3.781,3.781,0,1,0,0,2.521H14.8a5.042,5.042,0,0,0,9.73,0h5.458a3.781,3.781,0,1,0,3.529-5.042ZM5.783,30.469a1.26,1.26,0,1,1,1.26-1.26A1.26,1.26,0,0,1,5.783,30.469ZM19.648,6.521c2.937,0,4.664.832,5.042,1.26l-.063.076-.088.076-.151.1-.151.088-.227.113-.214.1-.366.113-.265.1-.378.1-.315.088-.479.088-.353.063-.618.076H17.594l-.466-.176h-.239a4.538,4.538,0,0,1-2.281-1.008C14.972,7.365,16.7,6.521,19.648,6.521ZM14.606,17.865V10.693h.076a9.491,9.491,0,0,0,1,.34l.252.063.756.164.756.126h.315c.391,0,.781.076,1.185.1h1.323a4.809,4.809,0,0,0,1.2-.1h.315l.769-.126.744-.164.265-.063a9.441,9.441,0,0,0,.983-.34h.088V17.8c-.176.378-1.928,1.336-5.042,1.336S14.77,18.167,14.606,17.865Zm5.042,13.865a2.521,2.521,0,1,1,2.521-2.521A2.521,2.521,0,0,1,19.648,31.729Zm13.865-1.26a1.26,1.26,0,1,1,1.26-1.26A1.26,1.26,0,0,1,33.513,30.469Z"/><path class="b" d="M19.042,13.26A1.26,1.26,0,0,0,17.781,12H15.26a1.26,1.26,0,1,0,0,2.521h2.521A1.26,1.26,0,0,0,19.042,13.26Z" transform="translate(3.127 2.083)"/></g></g></svg>