<svg xmlns="http://www.w3.org/2000/svg" width="67.211" height="67.211" viewBox="0 0 67.211 67.211"><defs><style>.a,.b{fill:#00539e;}.a{opacity:0.1;}.b{stroke:#00539e;stroke-width:0.5px;}</style></defs><g transform="translate(-754 -614)"><path class="a" d="M33.605,0A33.605,33.605,0,1,1,0,33.605,33.605,33.605,0,0,1,33.605,0Z" transform="translate(754 614)"/><g transform="translate(664.944 595.4)"><g transform="translate(113.056 36.6)"><g transform="translate(0 0)"><path class="b" d="M130.5,65.883H116.436c-.353,0-.713.014-1.066,0a.865.865,0,0,1-.871-.907c-.022-2.463,0-4.926,0-7.382V40.763c0-.619-.029-1.246,0-1.865s.526-.843,1.073-.843h14.569c.475,0,.958.022,1.16.555a2.076,2.076,0,0,1,.043.67V57.125c0,2.593.007,5.185,0,7.778a.891.891,0,0,1-.843.979c-.922.029-.929,1.469,0,1.44a2.327,2.327,0,0,0,2.283-2.333V39.2a2.921,2.921,0,0,0-.281-1.412,2.4,2.4,0,0,0-2.233-1.188H115.551a2.391,2.391,0,0,0-2.254,1.268,2.947,2.947,0,0,0-.238,1.361V64.241c0,.252-.007.5,0,.763a2.324,2.324,0,0,0,2.283,2.319c1.037.029,2.074,0,3.1,0h12.049A.721.721,0,0,0,130.5,65.883Z" transform="translate(-113.056 -36.6)"/></g></g><g transform="translate(120.666 62.829)"><g transform="translate(0)"><path class="b" d="M219.422,402.24h3.111a.721.721,0,0,0,0-1.44h-3.111a.721.721,0,0,0,0,1.44Z" transform="translate(-218.725 -400.8)"/></g></g><g transform="translate(113.075 39.978)"><g transform="translate(0 0)"><path class="b" d="M114.022,84.94h18.293a.721.721,0,0,0,0-1.44H114.022a.721.721,0,0,0,0,1.44Z" transform="translate(-113.325 -83.5)"/></g></g></g></g></svg>