<svg xmlns="http://www.w3.org/2000/svg" width="60" height="60" viewBox="0 0 60 60"><defs><style>.a{fill:#e4e6ff;}.b{fill:#565dff;}</style></defs><g transform="translate(-550 -1081)"><path class="a" d="M30,0A30,30,0,1,1,0,30,30,30,0,0,1,30,0Z" transform="translate(550 1081)"/><g transform="translate(564 1095)"><path class="b" d="M28,1H10A3,3,0,0,0,7,4v6H4a3,3,0,0,0-3,3V28a3,3,0,0,0,3,3H28a3,3,0,0,0,3-3V4a3,3,0,0,0-3-3ZM5,29H4a1,1,0,0,1-1-1V13a1,1,0,0,1,1-1H7V28a1,1,0,0,1-1,1Zm24-1a1,1,0,0,1-1,1H8.816A2.964,2.964,0,0,0,9,28V4a1,1,0,0,1,1-1H28a1,1,0,0,1,1,1Z"/><path class="b" d="M26,9H24a1,1,0,0,0,0,2h2a1,1,0,0,0,0-2Z"/><path class="b" d="M26,5H24a1,1,0,0,0,0,2h2a1,1,0,0,0,0-2Z"/><path class="b" d="M26,17H12a1,1,0,0,0,0,2H26a1,1,0,0,0,0-2Z"/><path class="b" d="M26,13H24a1,1,0,0,0,0,2h2a1,1,0,0,0,0-2Z"/><path class="b" d="M26,21H12a1,1,0,0,0,0,2H26a1,1,0,0,0,0-2Z"/><path class="b" d="M26,25H12a1,1,0,0,0,0,2H26a1,1,0,0,0,0-2Z"/><path class="b" d="M12,15h8a1,1,0,0,0,1-1V6a1,1,0,0,0-1-1H12a1,1,0,0,0-1,1v8A1,1,0,0,0,12,15Zm1-8h6v6H13Z"/></g></g></svg>