<svg xmlns="http://www.w3.org/2000/svg" width="13.068" height="17.749" viewBox="0 0 13.068 17.749"><defs><style>.a{fill:#00539e;}</style></defs><g transform="translate(-16.87 -5)"><path class="a" d="M29.711,13.435a2.286,2.286,0,0,0-1.584-1.815.506.506,0,0,1-.332-.481V9.485A4.452,4.452,0,0,0,23.536,5a4.4,4.4,0,0,0-4.524,4.389v1.748a.506.506,0,0,1-.332.481A2.286,2.286,0,0,0,17.1,13.435a28.413,28.413,0,0,0,0,7.158,2.393,2.393,0,0,0,2.23,1.958,41.942,41.942,0,0,0,8.154,0,2.393,2.393,0,0,0,2.23-1.958A28.384,28.384,0,0,0,29.711,13.435ZM23.522,6.326a3.117,3.117,0,0,1,2.949,3.141v1.375a.515.515,0,0,1-.549.513,41.845,41.845,0,0,0-5.038,0,.515.515,0,0,1-.549-.513V9.391A3.071,3.071,0,0,1,23.522,6.326ZM24.331,16.9a.8.8,0,0,0-.35.673V19.7a.577.577,0,0,1-.608.576.6.6,0,0,1-.546-.609v-2.08a.824.824,0,0,0-.359-.694,1.707,1.707,0,0,1-.776-1.489,1.731,1.731,0,0,1,1.661-1.654,1.711,1.711,0,0,1,.977,3.149Z" transform="translate(0 0)"/></g></svg>