<svg xmlns="http://www.w3.org/2000/svg" width="60" height="60" viewBox="0 0 60 60"><defs><style>.a{fill:#eedfff;}.b{fill:#d981ff;}</style></defs><g transform="translate(-1030 -661)"><path class="a" d="M30,0A30,30,0,1,1,0,30,30,30,0,0,1,30,0Z" transform="translate(1030 661)"/><g transform="translate(1042.9 669.7)"><g transform="translate(2.1 8.3)"><path class="b" d="M28.355,12.216H22.706v-1.99A1.931,1.931,0,0,0,20.78,8.3h-7.9a1.931,1.931,0,0,0-1.926,1.926v1.99H4.989A2.877,2.877,0,0,0,2.1,15.1V30.9a2.877,2.877,0,0,0,2.889,2.889H28.355a3.219,3.219,0,0,0,3.21-3.21V15.425A3.219,3.219,0,0,0,28.355,12.216ZM12.884,10.194h7.9v1.99h-7.9ZM29.639,30.607a1.288,1.288,0,0,1-1.284,1.284H4.989a.946.946,0,0,1-.963-.963V15.1a.946.946,0,0,1,.963-.963H28.355a1.288,1.288,0,0,1,1.284,1.284Z" transform="translate(-2.1 -8.3)"/><path class="b" d="M41.594,42.816H38.642V39.863a.963.963,0,0,0-1.926,0v2.953H33.763a.963.963,0,0,0,0,1.926h2.953v2.953a.963.963,0,0,0,1.926,0V44.742h2.953a.963.963,0,0,0,0-1.926Z" transform="translate(-22.946 -29.078)"/></g></g></g></svg>