<svg xmlns="http://www.w3.org/2000/svg" width="60" height="60" viewBox="0 0 60 60"><defs><style>.a{fill:#fdf4ce;}.b{fill:#f8c102;}</style></defs><g transform="translate(-550 -941)"><path class="a" d="M30,0A30,30,0,1,1,0,30,30,30,0,0,1,30,0Z" transform="translate(550 941)"/><g transform="translate(554.141 948.971)"><g transform="translate(9.903 6.029)"><path class="b" d="M12.643,958.395a.826.826,0,0,0-.709.81v1.2h-1.27a.8.8,0,0,0,.075,1.594h1.195v26.691a.8.8,0,1,0,1.593,0V961.995h4.493l.473,1.2H16.65a1.01,1.01,0,0,0-.7.3,1.252,1.252,0,0,0-.274.423,2.216,2.216,0,0,0-.162.872v15.146a2.215,2.215,0,0,0,.162.872,1.252,1.252,0,0,0,.274.424,1.011,1.011,0,0,0,.7.3H38.282a1.01,1.01,0,0,0,.7-.3,1.253,1.253,0,0,0,.274-.424,2.215,2.215,0,0,0,.162-.872V964.785a2.216,2.216,0,0,0-.162-.872,1.252,1.252,0,0,0-.274-.423,1.011,1.011,0,0,0-.7-.3H36.2l.709-1.183.012-.012h4.082a.8.8,0,1,0,0-1.594H13.526v-1.2a.832.832,0,0,0-.884-.81Zm7.069,3.6H35.058l-.709,1.183-.012.012H20.2Zm-2.6,2.79H37.821v15.146H17.111Zm10.281,1.594a.8.8,0,0,0-.448.187l-5.576,4.783a.8.8,0,0,0,.523,1.408h.8v4.783a.828.828,0,0,0,.8.8h2.39a.828.828,0,0,0,.8-.8v-3.587h1.593v3.587a.828.828,0,0,0,.8.8h2.39a.828.828,0,0,0,.8-.8v-4.783h.8a.8.8,0,0,0,.523-1.408l-5.576-4.783a.806.806,0,0,0-.6-.187Zm.075,1.843,3.56,3.052a.813.813,0,0,0-.373.685v4.783h-.8v-3.587a.828.828,0,0,0-.8-.8H25.873a.828.828,0,0,0-.8.8v3.587h-.8v-4.783a.813.813,0,0,0-.373-.685Z" transform="translate(-9.903 -958.391)"/></g></g></g></svg>