<svg xmlns="http://www.w3.org/2000/svg" width="67.211" height="67.211" viewBox="0 0 67.211 67.211"><defs><style>.a,.b{fill:#fe6b45;}.a{opacity:0.1;}</style></defs><g transform="translate(-766 -864)"><path class="a" d="M33.605,0A33.605,33.605,0,1,1,0,33.605,33.605,33.605,0,0,1,33.605,0Z" transform="translate(766 864)"/><g transform="translate(772.3 870.4)"><g transform="translate(10.7 10.6)"><path class="b" d="M43.152,20.625h0a6.132,6.132,0,0,0,1.556-4.019,6.031,6.031,0,0,0-10.025-4.494,17.522,17.522,0,0,0-7-1.469A17.032,17.032,0,1,0,43.2,20.755C43.2,20.712,43.152,20.668,43.152,20.625ZM27.682,42.879a15.214,15.214,0,0,1-8.426-2.506,1.871,1.871,0,0,1,.043-.216,8.383,8.383,0,1,1,16.766,0,.324.324,0,0,0,.043.216A15.214,15.214,0,0,1,27.682,42.879Zm-3.8-17.069a3.8,3.8,0,0,1,7.605,0,3.752,3.752,0,0,1-3.327,3.759h0c-.173,0-.3.043-.475.043a1.773,1.773,0,0,1-.475-.043h0A3.783,3.783,0,0,1,23.88,25.811Zm14.26,12.92A10.615,10.615,0,0,0,31.528,30.3a5.881,5.881,0,0,0,2.117-4.494,5.963,5.963,0,0,0-11.927-.043A5.9,5.9,0,0,0,23.836,30.3a10.615,10.615,0,0,0-6.611,8.426A15.254,15.254,0,0,1,27.682,12.372a15.61,15.61,0,0,1,5.834,1.167,6.142,6.142,0,0,0-.821,3.068A6.021,6.021,0,0,0,38.7,22.613a5.762,5.762,0,0,0,3.068-.864,15.015,15.015,0,0,1,1.167,5.877A15.262,15.262,0,0,1,38.14,38.731Zm.562-17.8a4.278,4.278,0,1,1,4.278-4.278A4.26,4.26,0,0,1,38.7,20.928Z" transform="translate(-10.7 -10.6)"/><g transform="translate(25.322 3.371)"><path class="b" d="M74.615,21.036a.867.867,0,0,1-.864.864H72.8v.951a.864.864,0,1,1-1.728,0V21.9h-.907a.864.864,0,1,1,0-1.728h.907v-.907a.864.864,0,1,1,1.728,0v.907h.951A.867.867,0,0,1,74.615,21.036Z" transform="translate(-69.3 -18.4)"/></g></g></g></g></svg>