<svg xmlns="http://www.w3.org/2000/svg" width="25.543" height="24.896" viewBox="0 0 25.543 24.896"><defs><style>.a{fill:#00539e;}</style></defs><g transform="translate(-564.044 -955)"><g transform="translate(564.044 955)"><g transform="translate(0 0)"><path class="a" d="M12.1,958.394a.661.661,0,0,0-.568.648V960H10.512a.639.639,0,0,0,.06,1.276h.956V982.64a.638.638,0,1,0,1.275,0V961.275h3.6l.379.957H15.3a.809.809,0,0,0-.558.239,1,1,0,0,0-.219.339,1.773,1.773,0,0,0-.13.7v12.123a1.773,1.773,0,0,0,.13.7,1,1,0,0,0,.219.339.809.809,0,0,0,.558.239H32.618a.808.808,0,0,0,.558-.239,1,1,0,0,0,.219-.339,1.773,1.773,0,0,0,.13-.7V963.509a1.774,1.774,0,0,0-.13-.7,1,1,0,0,0-.219-.339.809.809,0,0,0-.558-.239H30.954l.568-.947.01-.01H34.8a.638.638,0,1,0,0-1.276h-22v-.957a.666.666,0,0,0-.707-.648Zm5.659,2.881H30.038l-.568.947-.01.01H18.143Zm-2.082,2.233H32.249v12.123H15.672Zm8.229,1.276a.643.643,0,0,0-.359.15l-4.463,3.828a.638.638,0,0,0,.418,1.127h.638v3.828a.663.663,0,0,0,.638.638h1.913a.663.663,0,0,0,.638-.638v-2.871H24.6v2.871a.663.663,0,0,0,.638.638h1.913a.663.663,0,0,0,.638-.638v-3.828h.638a.638.638,0,0,0,.418-1.127l-4.463-3.828a.646.646,0,0,0-.478-.15Zm.06,1.476L26.81,968.7a.651.651,0,0,0-.3.548v3.828h-.638v-2.871a.663.663,0,0,0-.638-.638h-2.55a.663.663,0,0,0-.638.638v2.871H21.41v-3.828a.651.651,0,0,0-.3-.548Z" transform="translate(-9.903 -958.391)"/></g></g></g></svg>