<svg xmlns="http://www.w3.org/2000/svg" width="67.211" height="67.211" viewBox="0 0 67.211 67.211"><defs><style>.a{fill:#ecffff;}.b{fill:#5bdcdf;stroke:#ecffff;stroke-width:0.5px;fill-rule:evenodd;}</style></defs><g transform="translate(-1006 -864)"><path class="a" d="M33.605,0A33.605,33.605,0,1,1,0,33.605,33.605,33.605,0,0,1,33.605,0Z" transform="translate(1006 864)"/><g transform="translate(1022 883)"><g transform="translate(0 0)"><g transform="translate(0 0)"><g transform="translate(0 0)"><path class="b" d="M30.405,26.124A2.793,2.793,0,1,1,33.2,23.33a2.793,2.793,0,0,1-2.794,2.794M17.765,7.988a2.793,2.793,0,1,1,2.794-2.794,2.793,2.793,0,0,1-2.794,2.794M20.559,23.33a2.793,2.793,0,1,1-2.794-2.792,2.792,2.792,0,0,1,2.794,2.792m-12.57,0a2.793,2.793,0,1,1-2.794-2.792A2.793,2.793,0,0,1,7.988,23.33M31.6,18.281V14.264a1.2,1.2,0,0,0-1.2-1.2H19.069v-2.85a5.169,5.169,0,1,0-2.4.062v2.788H5.2a1.2,1.2,0,0,0-1.2,1.2v4.017a5.2,5.2,0,1,0,2.4,0V15.466H16.666v2.786a5.23,5.23,0,1,0,2.4.062V15.466H29.2v2.816a5.2,5.2,0,1,0,2.405,0" transform="translate(0 0)"/></g></g></g></g></g></svg>