<svg xmlns="http://www.w3.org/2000/svg" width="67.211" height="67.211" viewBox="0 0 67.211 67.211"><defs><style>.a{fill:#fdf4ce;}.b{fill:#f8c102;stroke:#fdf4ce;stroke-width:0.25px;}</style></defs><g transform="translate(-526 -864)"><path class="a" d="M33.605,0A33.605,33.605,0,1,1,0,33.605,33.605,33.605,0,0,1,33.605,0Z" transform="translate(526 864)"/><g transform="translate(541.33 878)"><g transform="translate(6.67 2)"><path class="b" d="M23.713,26.934a1.18,1.18,0,0,0-.254-.381L20.11,23.2a1.184,1.184,0,0,0-1.675,1.675L19.7,26.147H12.091a1.186,1.186,0,0,0,0,2.373H19.7l-1.269,1.269a1.184,1.184,0,0,0,1.675,1.675l3.349-3.349a1.18,1.18,0,0,0,.254-1.269Z" transform="translate(-5.532 3.605)"/><path class="b" d="M26.792,2H10.222A3.552,3.552,0,0,0,6.67,5.552V22.135a3.552,3.552,0,0,0,3.552,3.552h16.57a3.552,3.552,0,0,0,3.552-3.552V5.552A3.552,3.552,0,0,0,26.792,2ZM13.775,23.315h0a4.732,4.732,0,1,1,9.465,0Zm14.21-1.18a1.18,1.18,0,0,1-1.18,1.18H25.612a7.1,7.1,0,0,0-14.21,0h-1.18a1.18,1.18,0,0,1-1.18-1.18V5.552a1.18,1.18,0,0,1,1.18-1.18h16.57a1.18,1.18,0,0,1,1.18,1.18Z" transform="translate(-6.67 -2)"/><path class="b" d="M17,4.8a4.732,4.732,0,1,0,4.732,4.732A4.732,4.732,0,0,0,17,4.8Zm0,7.1a2.373,2.373,0,1,1,2.373-2.373A2.373,2.373,0,0,1,17,11.9Z" transform="translate(-5.165 -1.248)"/></g></g></g></svg>