<svg xmlns="http://www.w3.org/2000/svg" width="22.805" height="19.328" viewBox="0 0 22.805 19.328"><defs><style>.a{fill:#00539e;stroke:#00539e;stroke-width:0.25px;}</style></defs><g transform="translate(-1044.875 -537.875)"><g transform="translate(1045 538)"><g transform="translate(0 0)"><path class="a" d="M12.313,29.963a.427.427,0,0,0,.329.141h9.539a8.821,8.821,0,0,0,3.524-.752,1.2,1.2,0,0,0,.752-1.081c0-.893-.893-1.128-.94-1.175a8.981,8.981,0,0,0-3.336-.658H18.657c-2.068-3.148-2.115-4.135-2.819-3.806-.846.47-1.41.47-1.41.94v2.866H12.266l-.94-1.645c-.282-.47-.893-.047-1.6.094a.467.467,0,0,0-.329.47c.047,1.457-.094,1.692.141,1.927ZM10.34,25.734l.376-.094c.846,1.316.846,1.786,1.316,1.786h2.913c.8,0,.329-1.175.47-3.477l.47-.235c2.209,3.43,2.068,3.712,2.537,3.712h3.759a7.857,7.857,0,0,1,3.148.658.229.229,0,0,1,0,.423,7.6,7.6,0,0,1-3.148.658H12.83l-2.49-2.4V25.734Z" transform="translate(-6.628 -15.349)"/><path class="a" d="M25.585,7.2H3.97a.444.444,0,0,0-.47.47V25.808a.444.444,0,0,0,.47.47H25.585a.444.444,0,0,0,.47-.47V7.67A.444.444,0,0,0,25.585,7.2Zm-.47,18.138H4.44V12.6H25.115Zm0-13.674H4.44V8.14H25.115Z" transform="translate(-3.5 -7.2)"/><path class="a" d="M41.47,12.724a.47.47,0,0,0,.329-.8.457.457,0,0,0-.8.329A.505.505,0,0,0,41.47,12.724Z" transform="translate(-23.379 -9.623)"/><path class="a" d="M34.94,12.278a.47.47,0,0,0-.8-.329.453.453,0,0,0,0,.658A.47.47,0,0,0,34.94,12.278Z" transform="translate(-19.668 -9.646)"/></g></g></g></svg>