<svg xmlns="http://www.w3.org/2000/svg" width="60" height="60" viewBox="0 0 60 60"><defs><style>.a{fill:#e9efff;}.b{fill:#4a7bff;stroke:#4a7bff;stroke-width:0.5px;}</style></defs><g transform="translate(-1030 -521)"><path class="a" d="M30,0A30,30,0,1,1,0,30,30,30,0,0,1,30,0Z" transform="translate(1030 521)"/><g transform="translate(1041.5 530.8)"><g transform="translate(3.5 7.2)"><path class="b" d="M13.339,32.563a.577.577,0,0,0,.445.191h12.9a11.925,11.925,0,0,0,4.764-1.016,1.627,1.627,0,0,0,1.016-1.461c0-1.207-1.207-1.525-1.27-1.588a12.141,12.141,0,0,0-4.51-.889H21.914c-2.8-4.256-2.859-5.59-3.811-5.145-1.143.635-1.906.635-1.906,1.27V27.8H13.275L12,25.575c-.381-.635-1.207-.064-2.16.127a.631.631,0,0,0-.445.635c.064,1.969-.127,2.287.191,2.6ZM10.67,26.846l.508-.127c1.143,1.779,1.143,2.414,1.779,2.414H16.9c1.08,0,.445-1.588.635-4.7l.635-.318c2.986,4.637,2.8,5.018,3.43,5.018h5.082a10.621,10.621,0,0,1,4.256.889.31.31,0,0,1,0,.572,10.273,10.273,0,0,1-4.256.889H14.037l-3.367-3.24v-1.4Z" transform="translate(-5.652 -12.807)"/><path class="b" d="M33.356,7.2H4.135a.6.6,0,0,0-.635.635v24.52a.6.6,0,0,0,.635.635H33.356a.6.6,0,0,0,.635-.635V7.835A.6.6,0,0,0,33.356,7.2Zm-.635,24.52H4.77V14.505H32.721Zm0-18.486H4.77V8.47H32.721Z" transform="translate(-3.5 -7.2)"/><path class="b" d="M41.635,13.06a.635.635,0,0,0,.445-1.08.618.618,0,0,0-1.08.445A.683.683,0,0,0,41.635,13.06Z" transform="translate(-17.178 -8.867)"/><path class="b" d="M35.27,12.441A.635.635,0,0,0,34.191,12a.613.613,0,0,0,0,.889A.635.635,0,0,0,35.27,12.441Z" transform="translate(-14.625 -8.883)"/></g></g></g></svg>