<svg xmlns="http://www.w3.org/2000/svg" width="67.211" height="67.211" viewBox="0 0 67.211 67.211"><defs><style>.a{fill:#ffe9dc;}.b{fill:#fe6b45;}</style></defs><g transform="translate(-316 -573)"><path class="a" d="M33.605,0A33.605,33.605,0,1,1,0,33.605,33.605,33.605,0,0,1,33.605,0Z" transform="translate(316 573)"/><g transform="translate(335 592)"><path class="b" d="M2.439,26.044H18.171a6.5,6.5,0,0,0,1.409,2.368H0V27.227A13.022,13.022,0,0,1,21.545,17.39a7.1,7.1,0,0,0-1.918,1.551,10.654,10.654,0,0,0-17.189,7.1ZM7.1,5.919a5.919,5.919,0,1,1,5.919,5.919A5.919,5.919,0,0,1,7.1,5.919Zm2.368,0a3.551,3.551,0,1,0,3.551-3.551A3.551,3.551,0,0,0,9.47,5.919Zm16.573,5.919v2.368h2.368v2.368H26.044v2.533a4.735,4.735,0,1,1-2.368,0V9.47H29.6v2.368Zm-1.184,9.47a2.368,2.368,0,1,0,2.368,2.368A2.368,2.368,0,0,0,24.86,21.308Z"/></g></g></svg>