<svg xmlns="http://www.w3.org/2000/svg" width="67.211" height="67.211" viewBox="0 0 67.211 67.211"><defs><style>.a,.b{fill:#fff;}.a{opacity:0.15;}.b{stroke:#fff;}</style></defs><g transform="translate(-1098 -614)"><path class="a" d="M33.605,0A33.605,33.605,0,1,1,0,33.605,33.605,33.605,0,0,1,33.605,0Z" transform="translate(1098 614)"/><g transform="translate(1115 630)"><g transform="translate(3 4)"><path class="b" d="M5.22,4A2.234,2.234,0,0,0,3,6.223V23.977A2.231,2.231,0,0,0,5.22,26.2H15.578v3.48h-3.7v1.48h8.879v-1.48h-3.7V26.2H27.417a2.231,2.231,0,0,0,2.22-2.22V6.223A2.234,2.234,0,0,0,27.417,4Zm0,1.483h22.2a.723.723,0,0,1,.74.74V23.977a.723.723,0,0,1-.74.74H5.22a.723.723,0,0,1-.74-.74V6.223A.723.723,0,0,1,5.22,5.483Z" transform="translate(-3 -4)"/></g></g></g></svg>