<svg xmlns="http://www.w3.org/2000/svg" width="27.637" height="28.157" viewBox="0 0 27.637 28.157"><defs><style>.a{fill:#fff;stroke:#fff;}</style></defs><g transform="translate(-2.5 -3.5)"><g transform="translate(3 4)"><path class="a" d="M5.22,4A2.234,2.234,0,0,0,3,6.223V23.977A2.231,2.231,0,0,0,5.22,26.2H15.578v3.48h-3.7v1.48h8.879v-1.48h-3.7V26.2H27.417a2.231,2.231,0,0,0,2.22-2.22V6.223A2.234,2.234,0,0,0,27.417,4Zm0,1.483h22.2a.723.723,0,0,1,.74.74V23.977a.723.723,0,0,1-.74.74H5.22a.723.723,0,0,1-.74-.74V6.223A.723.723,0,0,1,5.22,5.483Z" transform="translate(-3 -4)"/></g></g></svg>